<?xml version="1.0" standalone="no"?>
<!DOCTYPE svg PUBLIC "-//W3C//DTD SVG 20010904//EN"
 "http://www.w3.org/TR/2001/REC-SVG-20010904/DTD/svg10.dtd">
<svg version="1.0" xmlns="http://www.w3.org/2000/svg"
 width="200.000000pt" height="58.000000pt" viewBox="0 0 200.000000 58.000000"
 preserveAspectRatio="xMidYMid meet">

<g transform="translate(0.000000,58.000000) scale(0.100000,-0.100000)"
fill="#000000" stroke="none">
<path d="M397 503 c-10 -16 -127 -401 -127 -417 0 -9 4 -16 9 -16 6 0 31 66
56 148 25 81 55 176 67 210 13 43 17 67 10 74 -5 5 -12 6 -15 1z"/>
<path d="M1670 390 l0 -60 -26 10 c-62 24 -114 -23 -114 -102 0 -84 64 -124
124 -77 21 17 26 18 26 5 0 -9 8 -16 19 -16 17 0 18 4 10 38 -5 20 -9 88 -9
150 0 93 -3 112 -15 112 -12 0 -15 -13 -15 -60z m-2 -127 c3 -35 -2 -48 -22
-68 -31 -31 -50 -32 -70 -3 -20 29 -20 67 0 96 12 18 24 22 52 20 36 -3 37 -4
40 -45z"/>
<path d="M720 291 l0 -139 43 -4 c107 -11 177 45 177 142 0 89 -57 140 -157
140 l-63 0 0 -139z m151 80 c24 -25 29 -38 29 -79 0 -80 -60 -133 -129 -115
-20 5 -21 11 -21 114 l0 109 46 0 c37 0 51 -5 75 -29z"/>
<path d="M1200 316 c0 -106 -2 -116 -21 -130 -16 -10 -28 -12 -46 -5 -32 12
-33 12 -33 -11 0 -28 61 -38 95 -16 37 24 45 55 45 172 0 97 -1 104 -20 104
-19 0 -20 -7 -20 -114z"/>
<path d="M135 354 c-36 -30 -63 -60 -59 -65 10 -16 124 -109 135 -109 23 0 4
29 -46 69 -30 24 -55 45 -55 46 0 1 25 22 55 46 50 40 69 69 46 69 -6 0 -39
-25 -76 -56z"/>
<path d="M480 393 c0 -5 24 -30 55 -58 l56 -50 -56 -44 c-50 -40 -70 -71 -46
-71 12 0 141 110 141 119 0 4 -29 31 -64 59 -60 49 -86 62 -86 45z"/>
<path d="M1815 341 c-38 -16 -57 -47 -57 -94 0 -57 13 -81 52 -97 38 -16 115
-3 115 20 0 8 -7 13 -15 12 -62 -15 -79 -13 -99 7 -40 40 -28 51 50 51 l72 0
-7 33 c-7 35 -47 77 -74 76 -9 0 -26 -4 -37 -8z m56 -31 c38 -21 23 -40 -31
-40 -47 0 -50 1 -40 19 15 30 40 37 71 21z"/>
<path d="M1308 258 c3 -68 8 -86 24 -100 27 -24 49 -23 82 3 23 18 27 18 32 5
3 -9 13 -16 21 -16 12 0 14 7 9 31 -3 17 -6 60 -6 95 0 50 -3 64 -15 64 -12 0
-15 -13 -15 -59 0 -54 -3 -62 -31 -85 -17 -14 -35 -26 -39 -26 -19 0 -30 41
-30 104 0 57 -2 66 -18 66 -17 0 -18 -8 -14 -82z"/>
<path d="M1004 175 c-4 -9 -2 -21 4 -27 15 -15 44 -1 40 19 -4 23 -36 29 -44
8z"/>
</g>
</svg>
