<?xml version="1.0" encoding="utf-8"?>
<svg id="master-artboard" xmlns="http://www.w3.org/2000/svg" viewBox="0 0 300 75" width="300px" height="75px"><defs><style id="ee-google-fonts">@import url(https://fonts.googleapis.com/css?family=Amethysta:400|Averia+Gruesa+Libre:400);</style></defs><rect id="ee-background" x="0" y="0" width="300" height="75" style="fill: white; fill-opacity: 0; pointer-events: none;"/><path d="M 52.236515045166016 39.757301330566406 L 65.5565185546875 39.757301330566406 C 67.80317687988281 39.757301330566406 69.85651397705078 40.09730529785156 71.71651458740234 40.777305603027344 C 73.58318328857422 41.457305908203125 75.19984436035156 42.45063781738281 76.56651306152344 43.757301330566406 C 77.93318176269531 45.05730438232422 78.99984741210938 46.72063446044922 79.76651000976562 48.7473030090332 C 80.5331802368164 50.77397155761719 80.91651916503906 53.077301025390625 80.91651916503906 55.65730285644531 C 80.91651916503906 58.75063705444336 80.26318359375 61.4973030090332 78.95651245117188 63.89730453491211 C 77.6565170288086 66.29730224609375 75.83984375 68.15396881103516 73.50651550292969 69.46730041503906 C 71.17317962646484 70.78730010986328 68.50984954833984 71.44730377197266 65.51651763916016 71.44730377197266 L 52.236515045166016 71.44730377197266 L 52.236515045166016 70.56730651855469 L 56.18651580810547 69.01730346679688 L 56.18651580810547 42.18730163574219 L 52.236515045166016 40.637306213378906 L 52.236515045166016 39.757301330566406 M 65.25651550292969 42.05730438232422 L 60.37651443481445 42.05730438232422 L 60.37651443481445 69.16730499267578 L 65.38651275634766 69.16730499267578 C 66.83318328857422 69.16730499267578 68.20984649658203 68.8873062133789 69.51651000976562 68.32730102539062 C 70.82984924316406 67.77397155761719 71.99651336669922 66.96730041503906 73.01651000976562 65.90730285644531 C 74.04318237304688 64.84730529785156 74.85984802246094 63.470638275146484 75.46651458740234 61.777305603027344 C 76.07984924316406 60.09063720703125 76.38651275634766 58.1939697265625 76.38651275634766 56.087303161621094 C 76.38651275634766 51.573970794677734 75.41984558105469 48.107303619384766 73.48651123046875 45.68730163574219 C 71.55317687988281 43.267303466796875 68.80984497070312 42.05730438232422 65.25651550292969 42.05730438232422 ZM 89.1817626953125 66.61730194091797 C 89.92176055908203 66.61730194091797 90.55509185791016 66.87730407714844 91.08175659179688 67.39730072021484 C 91.60176086425781 67.91730499267578 91.86175537109375 68.5506362915039 91.86175537109375 69.29730224609375 C 91.86175537109375 70.05730438232422 91.60176086425781 70.70397186279297 91.08175659179688 71.2373046875 C 90.55509185791016 71.76396942138672 89.92176055908203 72.02730560302734 89.1817626953125 72.02730560302734 C 88.4084243774414 72.02730560302734 87.7584228515625 71.76396942138672 87.23175811767578 71.2373046875 C 86.71176147460938 70.70397186279297 86.4517593383789 70.05730438232422 86.4517593383789 69.29730224609375 C 86.4517593383789 68.53730010986328 86.71176147460938 67.900634765625 87.23175811767578 67.3873062133789 C 87.7584228515625 66.87397003173828 88.4084243774414 66.61730194091797 89.1817626953125 66.61730194091797 ZM 104.97553253173828 42.18730163574219 L 104.97553253173828 66.52730560302734 C 104.97553253173828 69.2939682006836 104.21553039550781 71.5506362915039 102.6955337524414 73.29730224609375 C 101.175537109375 75.0439682006836 98.8388671875 76.36063385009766 95.68553161621094 77.24730682373047 L 95.53553009033203 75.84730529785156 C 97.5688705444336 74.68730163574219 98.95220184326172 73.4239730834961 99.68553161621094 72.05730438232422 C 100.41886901855469 70.69063568115234 100.78553771972656 68.72396850585938 100.78553771972656 66.15730285644531 L 100.78553771972656 42.18730163574219 L 96.82553100585938 40.637306213378906 L 96.82553100585938 39.757301330566406 L 108.70553588867188 39.757301330566406 L 108.70553588867188 40.637306213378906 L 104.97553253173828 42.18730163574219 ZM 111.39999389648438 51.337303161621094 L 111.39999389648438 50.457305908203125 L 118.8699951171875 48.90730285644531 L 119.29999542236328 49.357303619384766 L 119.29999542236328 63.66730499267578 C 119.29999542236328 65.71397399902344 119.65999603271484 67.14396667480469 120.37999725341797 67.95730590820312 C 121.09333038330078 68.76396942138672 122.28665924072266 69.16730499267578 123.95999145507812 69.16730499267578 C 125.93999481201172 69.16730499267578 127.67332458496094 68.5439682006836 129.16000366210938 67.29730224609375 L 129.16000366210938 52.887306213378906 L 125.20999145507812 51.337303161621094 L 125.20999145507812 50.457305908203125 L 132.69000244140625 48.90730285644531 L 133.1199951171875 49.357303619384766 L 133.1199951171875 68.45730590820312 L 137.08999633789062 69.55730438232422 L 137.08999633789062 70.34730529785156 L 129.61000061035156 71.9873046875 L 129.16000366210938 71.53730010986328 L 129.16000366210938 68.97730255126953 C 128.17332458496094 69.9239730834961 127.02999877929688 70.66063690185547 125.72999572753906 71.18730163574219 C 124.42333221435547 71.72063446044922 123.1199951171875 71.9873046875 121.81999206542969 71.9873046875 C 120.95999145507812 71.9873046875 120.14999389648438 71.85063934326172 119.38999938964844 71.57730102539062 C 118.62999725341797 71.30397033691406 117.94666290283203 70.89064025878906 117.33999633789062 70.3373031616211 C 116.7266616821289 69.79063415527344 116.24333190917969 69.05730438232422 115.88999938964844 68.1373062133789 C 115.52999877929688 67.22396850585938 115.3499984741211 66.17063903808594 115.3499984741211 64.97730255126953 L 115.3499984741211 52.887306213378906 L 111.39999389648438 51.337303161621094 ZM 164.44285583496094 69.55730438232422 L 164.44285583496094 70.34730529785156 L 156.96286010742188 71.9873046875 L 156.53286743164062 71.53730010986328 L 156.53286743164062 69.46730041503906 C 154.8128662109375 71.14730072021484 152.78619384765625 71.9873046875 150.45286560058594 71.9873046875 C 149.2661895751953 71.9873046875 148.11952209472656 71.71730041503906 147.0128631591797 71.17730712890625 C 145.91285705566406 70.64396667480469 144.9395294189453 69.89396667480469 144.09286499023438 68.92730712890625 C 143.24620056152344 67.96063995361328 142.5695343017578 66.74063873291016 142.0628662109375 65.26730346679688 C 141.5561981201172 63.800636291503906 141.3028564453125 62.1939697265625 141.3028564453125 60.447303771972656 C 141.3028564453125 58.740638732910156 141.59286499023438 57.163970947265625 142.17286682128906 55.71730422973633 C 142.7528533935547 54.27063751220703 143.53619384765625 53.05730438232422 144.52285766601562 52.077301025390625 C 145.509521484375 51.09730529785156 146.6761932373047 50.33063507080078 148.02285766601562 49.777305603027344 C 149.36952209472656 49.23063659667969 150.7961883544922 48.957305908203125 152.3028564453125 48.957305908203125 C 153.66285705566406 48.957305908203125 155.07286071777344 49.190635681152344 156.53286743164062 49.65730285644531 L 156.53286743164062 41.887306213378906 L 152.5528564453125 40.337303161621094 L 152.5528564453125 39.457305908203125 L 160.0528564453125 37.90730285644531 L 160.4828643798828 38.357303619384766 L 160.4828643798828 68.45730590820312 L 164.44285583496094 69.55730438232422 M 156.53286743164062 67.12730407714844 L 156.53286743164062 52.21730422973633 C 155.19952392578125 51.490638732910156 153.9395294189453 51.12730407714844 152.75286865234375 51.12730407714844 C 150.7328643798828 51.12730407714844 149.06619262695312 52.017303466796875 147.75286865234375 53.79730224609375 C 146.44619750976562 55.58396911621094 145.79286193847656 57.800636291503906 145.79286193847656 60.447303771972656 C 145.79286193847656 63.22730255126953 146.33285522460938 65.46063995361328 147.41285705566406 67.14730072021484 C 148.49285888671875 68.84063720703125 150.00619506835938 69.68730163574219 151.95286560058594 69.68730163574219 C 153.74620056152344 69.68730163574219 155.27285766601562 68.83396911621094 156.53286743164062 67.12730407714844 ZM 187.01348876953125 60.57730484008789 L 173.1134796142578 60.57730484008789 C 173.13348388671875 62.1839714050293 173.3634796142578 63.58063507080078 173.80348205566406 64.76730346679688 C 174.25015258789062 65.95397186279297 174.85348510742188 66.88397216796875 175.6134796142578 67.55730438232422 C 176.3668212890625 68.23063659667969 177.2001495361328 68.72396850585938 178.1134796142578 69.03730010986328 C 179.0201416015625 69.35730743408203 180.01014709472656 69.51730346679688 181.08348083496094 69.51730346679688 C 182.57681274414062 69.51730346679688 184.17681884765625 69.01396942138672 185.88348388671875 68.0073013305664 L 186.54348754882812 69.29730224609375 C 185.34347534179688 70.35730743408203 184.14015197753906 71.07064056396484 182.93348693847656 71.43730163574219 C 181.7334747314453 71.80397033691406 180.3668212890625 71.9873046875 178.83348083496094 71.9873046875 C 177.50015258789062 71.9873046875 176.21681213378906 71.70397186279297 174.9834747314453 71.1373062133789 C 173.75682067871094 70.57064056396484 172.67681884765625 69.79063415527344 171.7434844970703 68.79730224609375 C 170.81015014648438 67.79730224609375 170.0634765625 66.57396697998047 169.50347900390625 65.12730407714844 C 168.9501495361328 63.68063735961914 168.67347717285156 62.120635986328125 168.67347717285156 60.447303771972656 C 168.67347717285156 58.86063766479492 168.87681579589844 57.41063690185547 169.28347778320312 56.09730529785156 C 169.69015502929688 54.78396987915039 170.2301483154297 53.690635681152344 170.9034881591797 52.81730651855469 C 171.57681274414062 51.9439697265625 172.3601531982422 51.207305908203125 173.25347900390625 50.607303619384766 C 174.1534881591797 50.007301330566406 175.0701446533203 49.573970794677734 176.00347900390625 49.30730438232422 C 176.9434814453125 49.0406379699707 177.900146484375 48.90730285644531 178.87347412109375 48.90730285644531 C 180.09347534179688 48.90730285644531 181.22348022460938 49.13397216796875 182.26348876953125 49.587303161621094 C 183.29681396484375 50.0406379699707 184.22015380859375 50.707305908203125 185.03347778320312 51.587303161621094 C 185.84014892578125 52.46730422973633 186.476806640625 53.62397003173828 186.9434814453125 55.05730438232422 C 187.41015625 56.490638732910156 187.6434783935547 58.12397003173828 187.6434783935547 59.957305908203125 L 187.01348876953125 60.57730484008789 M 178.96348571777344 50.9973030090332 C 177.3168182373047 50.9973030090332 176.00347900390625 51.64730453491211 175.0234832763672 52.947303771972656 C 174.0368194580078 54.253971099853516 173.43014526367188 56.03730392456055 173.20347595214844 58.29730224609375 L 183.45347595214844 58.29730224609375 C 183.45347595214844 56.003971099853516 183.0668182373047 54.21397018432617 182.29348754882812 52.927303314208984 C 181.5201416015625 51.6406364440918 180.41014099121094 50.9973030090332 178.96348571777344 50.9973030090332 Z" transform="matrix(1, 0, 0, 1, 19.177568435668945, -15.644859313964844)" style="fill: rgb(3, 3, 3); white-space: pre; color: rgb(51, 51, 51);"/><path d="M 38.236541748046875 32.75 C 38.236541748046875 32.75 38.38320541381836 32.86333465576172 38.67654037475586 33.09000015258789 C 38.969871520996094 33.31666564941406 39.116539001464844 33.766666412353516 39.116539001464844 34.439998626708984 C 39.116539001464844 35.106666564941406 38.86320495605469 35.439998626708984 38.35654067993164 35.439998626708984 C 37.85654067993164 35.439998626708984 34.399871826171875 33.47666549682617 27.986539840698242 29.549999237060547 C 26.526538848876953 28.649999618530273 25.796539306640625 27.90999984741211 25.796539306640625 27.329999923706055 C 25.796539306640625 26.75 26.206539154052734 26.19333267211914 27.026538848876953 25.65999984741211 C 34.046539306640625 21.133333206176758 38.04320526123047 18.8700008392334 39.01654052734375 18.8700008392334 C 39.34987258911133 18.8700008392334 39.51654052734375 19.196666717529297 39.51654052734375 19.850000381469727 C 39.51654052734375 20.503334045410156 38.999874114990234 21.200000762939453 37.9665412902832 21.939998626708984 C 37.79320526123047 22.073333740234375 36.40320587158203 22.926666259765625 33.796539306640625 24.5 L 29.44654083251953 27.139999389648438 C 29.44654083251953 27.293333053588867 30.76654052734375 28.15333366394043 33.40653991699219 29.719999313354492 C 36.03987121582031 31.286666870117188 37.649871826171875 32.29666519165039 38.236541748046875 32.75 ZM 39.05834197998047 38.709999084472656 C 39.05834197998047 37.70333480834961 42.43500900268555 29.546667098999023 49.18833923339844 14.239999771118164 C 49.71500778198242 13.033332824707031 50.35500717163086 12.430000305175781 51.108341217041016 12.430000305175781 C 51.86167526245117 12.430000305175781 52.23834228515625 12.579999923706055 52.23834228515625 12.879999160766602 L 52.23834228515625 13.129999160766602 C 52.23834228515625 13.25 52.00167465209961 13.906665802001953 51.528343200683594 15.100000381469727 C 47.66167449951172 24.753334045410156 44.52167510986328 32.23666763305664 42.108341217041016 37.54999923706055 C 41.55500793457031 38.76333236694336 40.91834259033203 39.369998931884766 40.198341369628906 39.369998931884766 L 39.89834213256836 39.369998931884766 C 39.338340759277344 39.369998931884766 39.05834197998047 39.22666549682617 39.05834197998047 38.939998626708984 L 39.05834197998047 38.709999084472656 ZM 61.64710998535156 27.170000076293945 C 61.64710998535156 27.003334045410156 60.4404411315918 26.203332901000977 58.02710723876953 24.770000457763672 C 55.613773345947266 23.336666107177734 54.00710678100586 22.31999969482422 53.20710754394531 21.720001220703125 C 52.40044021606445 21.11333465576172 51.997108459472656 20.483333587646484 51.997108459472656 19.829999923706055 C 51.997108459472656 19.170000076293945 52.23044204711914 18.84000015258789 52.69710922241211 18.84000015258789 C 52.89710998535156 18.84000015258789 53.42377471923828 19.086666107177734 54.27710723876953 19.579999923706055 C 59.77710723876953 22.773334503173828 62.97043991088867 24.68000030517578 63.85710906982422 25.299999237060547 C 64.75044250488281 25.926666259765625 65.19710540771484 26.46666717529297 65.19710540771484 26.920000076293945 C 65.19710540771484 27.573333740234375 64.78377532958984 28.166667938232422 63.95710754394531 28.700000762939453 C 56.97043991088867 33.2066650390625 52.990440368652344 35.459999084472656 52.01710891723633 35.459999084472656 C 51.703773498535156 35.459999084472656 51.5471076965332 35.13999938964844 51.5471076965332 34.5 C 51.5471076965332 33.86666488647461 51.990440368652344 33.21666717529297 52.87710952758789 32.54999923706055 C 53.35710906982422 32.1966667175293 54.93710708618164 31.22333335876465 57.61710739135742 29.630001068115234 C 60.303775787353516 28.036666870117188 61.64710998535156 27.21666717529297 61.64710998535156 27.170000076293945 Z" transform="matrix(1.0931094884872437, 0, 0, 1.0931094884872437, -1.1084702014923096, -23.745203018188477)" style="fill: rgb(41, 47, 163); white-space: pre; color: rgb(51, 51, 51);"/></svg>