<?xml version="1.0" encoding="utf-8"?>
<svg id="master-artboard" xmlns="http://www.w3.org/2000/svg" viewBox="0 0 300 75" width="300px" height="75px"><rect id="ee-background" x="0" y="0" width="300" height="75" style="fill: white; fill-opacity: 0; pointer-events: none;"/><path d="M 52.6665153503418 15.640000343322754 L 52.6665153503418 11.680000305175781 L 69.91651916503906 4.549999237060547 L 70.926513671875 7.579999923706055 L 55.43651580810547 13.699999809265137 L 70.926513671875 20.610000610351562 L 69.91651916503906 23.639999389648438 L 52.6665153503418 15.640000343322754 ZM 83.63629150390625 -3.6800003051757812 L 86.6762924194336 -3.020000457763672 L 76.99629211425781 32.400001525878906 L 73.95629119873047 31.739999771118164 L 83.63629150390625 -3.6800003051757812 ZM 90.72057342529297 23.639999389648438 L 89.7105712890625 20.610000610351562 L 105.20056915283203 13.699999809265137 L 89.7105712890625 7.579999923706055 L 90.72057342529297 4.549999237060547 L 107.97057342529297 11.680000305175781 L 107.97057342529297 15.640000343322754 L 90.72057342529297 23.639999389648438 ZM 121.34034729003906 -3.6800003051757812 C 123.42701721191406 -3.6800003051757812 125.34034729003906 -3.436666488647461 127.08035278320312 -2.950000762939453 C 128.82701110839844 -2.469999313354492 130.3236846923828 -1.6266670227050781 131.57034301757812 -0.4200000762939453 C 132.8170166015625 0.7800006866455078 133.79368591308594 2.3999996185302734 134.50035095214844 4.440000534057617 C 135.20034790039062 6.479999542236328 135.55035400390625 9.053333282470703 135.55035400390625 12.15999984741211 C 135.55035400390625 15.180000305175781 135.20701599121094 17.703332901000977 134.52035522460938 19.729999542236328 C 133.83367919921875 21.75 132.85702514648438 23.376667022705078 131.59034729003906 24.610000610351562 C 130.33035278320312 25.843334197998047 128.83702087402344 26.71666717529297 127.1103515625 27.229999542236328 C 125.37701416015625 27.74333381652832 123.48368835449219 28 121.43035125732422 28 L 115.7103500366211 28 L 115.7103500366211 -3.6800003051757812 L 121.34034729003906 -3.6800003051757812 M 119.45034790039062 -0.9099998474121094 L 119.45034790039062 25.100000381469727 L 121.39035034179688 25.100000381469727 C 123.17701721191406 25.100000381469727 124.72368621826172 24.869998931884766 126.03034973144531 24.40999984741211 C 127.33702087402344 23.956666946411133 128.41368103027344 23.21666717529297 129.26034545898438 22.190000534057617 C 130.11367797851562 21.163333892822266 130.74368286132812 19.829999923706055 131.1503448486328 18.189998626708984 C 131.56369018554688 16.543333053588867 131.77035522460938 14.533333778381348 131.77035522460938 12.15999984741211 C 131.77035522460938 7.613332748413086 130.93368530273438 4.299999237060547 129.26034545898438 2.219999313354492 C 127.58702087402344 0.1333332061767578 124.93368530273438 -0.9099998474121094 121.30035400390625 -0.9099998474121094 L 119.45034790039062 -0.9099998474121094 ZM 141.3140869140625 28 L 141.3140869140625 23.600000381469727 L 145.71408081054688 23.600000381469727 L 145.71408081054688 28 L 141.3140869140625 28 ZM 159.9731903076172 -3.6800003051757812 L 163.71319580078125 -3.6800003051757812 L 163.71319580078125 20.739999771118164 C 163.71319580078125 23.31999969482422 163.04652404785156 25.27666664123535 161.71319580078125 26.610000610351562 C 160.37985229492188 27.950000762939453 158.56985473632812 28.6200008392334 156.28318786621094 28.6200008392334 C 154.66986083984375 28.6200008392334 153.30319213867188 28.273332595825195 152.1831817626953 27.579999923706055 C 151.06985473632812 26.893333435058594 150.24986267089844 26.093334197998047 149.7231903076172 25.18000030517578 L 152.58319091796875 23.25 C 152.9365234375 23.950000762939453 153.4431915283203 24.50666618347168 154.1031951904297 24.920000076293945 C 154.76318359375 25.33333396911621 155.4731903076172 25.540000915527344 156.23318481445312 25.540000915527344 C 157.40652465820312 25.540000915527344 158.32318115234375 25.156665802001953 158.98318481445312 24.389999389648438 C 159.6431884765625 23.630001068115234 159.9731903076172 22.34000015258789 159.9731903076172 20.520000457763672 L 159.9731903076172 -3.6800003051757812 ZM 175.7227325439453 3.3600006103515625 L 175.7227325439453 20.299999237060547 C 175.7227325439453 21.97333335876465 176.1693878173828 23.293333053588867 177.06272888183594 24.260000228881836 C 177.9560546875 25.226667404174805 179.44606018066406 25.709999084472656 181.53273010253906 25.709999084472656 C 183.61273193359375 25.709999084472656 185.10606384277344 25.226667404174805 186.01272583007812 24.260000228881836 C 186.92605590820312 23.293333053588867 187.38272094726562 21.97333335876465 187.38272094726562 20.299999237060547 L 187.38272094726562 3.3600006103515625 L 190.85272216796875 3.3600006103515625 L 190.85272216796875 20.040000915527344 C 190.85272216796875 22.619998931884766 190.0460662841797 24.700000762939453 188.43272399902344 26.280000686645508 C 186.81939697265625 27.866666793823242 184.5027313232422 28.65999984741211 181.48272705078125 28.65999984741211 C 178.48939514160156 28.65999984741211 176.1793975830078 27.866666793823242 174.55271911621094 26.280000686645508 C 172.92605590820312 24.700000762939453 172.11273193359375 22.619998931884766 172.11273193359375 20.040000915527344 L 172.11273193359375 3.3600006103515625 L 175.7227325439453 3.3600006103515625 ZM 205.85704040527344 3.3600006103515625 C 207.32371520996094 3.3600006103515625 208.7970428466797 3.5366668701171875 210.27703857421875 3.8899993896484375 C 211.75704956054688 4.24333381652832 213.0937042236328 4.879999160766602 214.28704833984375 5.799999237060547 C 215.4737091064453 6.726667404174805 216.4403839111328 7.989999771118164 217.18704223632812 9.59000015258789 C 217.9337158203125 11.183332443237305 218.30703735351562 13.213333129882812 218.30703735351562 15.680000305175781 C 218.30703735351562 18.14666748046875 217.8970489501953 20.176666259765625 217.07704162597656 21.770000457763672 C 216.25704956054688 23.369998931884766 215.23037719726562 24.633333206176758 213.99703979492188 25.559999465942383 C 212.76370239257812 26.479999542236328 211.41371154785156 27.116666793823242 209.94705200195312 27.469999313354492 C 208.48037719726562 27.823333740234375 207.1037139892578 28 205.81704711914062 28 L 199.47705078125 28 L 199.47705078125 3.3600006103515625 L 205.85704040527344 3.3600006103515625 M 203.03704833984375 6.040000915527344 L 203.03704833984375 25.229999542236328 L 205.98704528808594 25.229999542236328 C 207.07371520996094 25.229999542236328 208.14370727539062 25.09666633605957 209.19705200195312 24.829999923706055 C 210.25704956054688 24.56999969482422 211.19705200195312 24.086666107177734 212.0170440673828 23.380001068115234 C 212.8370361328125 22.67333221435547 213.49703979492188 21.706666946411133 213.99703979492188 20.479999542236328 C 214.49703979492188 19.246665954589844 214.74703979492188 17.64666748046875 214.74703979492188 15.680000305175781 C 214.74703979492188 13.713333129882812 214.48370361328125 12.106666564941406 213.95704650878906 10.860000610351562 C 213.4237060546875 9.613332748413086 212.73370361328125 8.629999160766602 211.8870391845703 7.909999847412109 C 211.03370666503906 7.196666717529297 210.0870361328125 6.706666946411133 209.0470428466797 6.440000534057617 C 208.00704956054688 6.173334121704102 206.9737091064453 6.040000915527344 205.94705200195312 6.040000915527344 L 203.03704833984375 6.040000915527344 ZM 239.9171600341797 16.90999984741211 L 229.8871612548828 16.90999984741211 L 229.8871612548828 25.049999237060547 L 241.19715881347656 25.049999237060547 L 241.19715881347656 28 L 226.27716064453125 28 L 226.27716064453125 3.3600006103515625 L 241.19715881347656 3.3600006103515625 L 241.19715881347656 6.309999465942383 L 229.8871612548828 6.309999465942383 L 229.8871612548828 14.050000190734863 L 239.9171600341797 14.050000190734863 L 239.9171600341797 16.90999984741211 Z" transform="matrix(1.1454545259475708, 0, 0, 1.1454545259475708, -29.450193405151367, -24.770925521850586)" style="fill: rgb(3, 3, 3); white-space: pre; color: rgb(3, 3, 3);"/></svg>